<?xml version="1.0" encoding="UTF-8" standalone="no"?>
<!-- Created with Inkscape (http://www.inkscape.org/) -->

<svg
   xmlns:dc="http://purl.org/dc/elements/1.1/"
   xmlns:cc="http://creativecommons.org/ns#"
   xmlns:rdf="http://www.w3.org/1999/02/22-rdf-syntax-ns#"
   xmlns:svg="http://www.w3.org/2000/svg"
   xmlns="http://www.w3.org/2000/svg"
   xmlns:xlink="http://www.w3.org/1999/xlink"
   xmlns:sodipodi="http://sodipodi.sourceforge.net/DTD/sodipodi-0.dtd"
   xmlns:inkscape="http://www.inkscape.org/namespaces/inkscape"
   width="744.09448819"
   height="1052.3622047"
   id="svg2"
   version="1.1"
   inkscape:version="0.48.4 r9939"
   sodipodi:docname="newlogo.svg">
  <defs
     id="defs4" />
  <sodipodi:namedview
     id="base"
     pagecolor="#ffffff"
     bordercolor="#666666"
     borderopacity="1.0"
     inkscape:pageopacity="0.0"
     inkscape:pageshadow="2"
     inkscape:zoom="0.24748737"
     inkscape:cx="-422.84844"
     inkscape:cy="1164.5803"
     inkscape:document-units="px"
     inkscape:current-layer="layer1"
     showgrid="false"
     inkscape:window-width="1600"
     inkscape:window-height="837"
     inkscape:window-x="-8"
     inkscape:window-y="-8"
     inkscape:window-maximized="1" />
  <metadata
     id="metadata7">
    <rdf:RDF>
      <cc:Work
         rdf:about="">
        <dc:format>image/svg+xml</dc:format>
        <dc:type
           rdf:resource="http://purl.org/dc/dcmitype/StillImage" />
      </cc:Work>
    </rdf:RDF>
  </metadata>
  <g
     inkscape:label="Layer 1"
     inkscape:groupmode="layer"
     id="layer1">
    <image
       y="308.38739"
       x="88.857964"
       id="image3004"
       xlink:href="file:///C:/Users/Jack/Downloads/feathers-logo-wide.png"
       height="100"
       width="590" />
    <path
       sodipodi:type="arc"
       style="color:#000000;fill:#ffffff;fill-opacity:1;fill-rule:nonzero;stroke:none;stroke-width:1.25000000000000000;stroke-linecap:round;stroke-linejoin:round;stroke-miterlimit:4;stroke-opacity:1;stroke-dasharray:none;stroke-dashoffset:0;marker:none;visibility:visible;display:inline;overflow:visible;enable-background:accumulate"
       id="path3007"
       sodipodi:cx="140.53572"
       sodipodi:cy="358.16574"
       sodipodi:rx="36.07143"
       sodipodi:ry="42.410713"
       d="m 176.60715,358.16574 a 36.07143,42.410713 0 1 1 -72.14286,0 36.07143,42.410713 0 1 1 72.14286,0 z" />
    <image
       width="590"
       height="100"
       xlink:href="file:///C:/Users/Jack/Downloads/feathers-logo-wide.png"
       id="image3815"
       x="88.857964"
       y="456.9588" />
    <rect
       style="opacity:1;color:#000000;fill:#ffffff;fill-opacity:1;fill-rule:nonzero;stroke:none;stroke-width:0.50000000000000000;marker:none;visibility:visible;display:inline;overflow:visible;enable-background:accumulate"
       id="rect3817"
       width="127.14286"
       height="134.28572"
       x="70"
       y="439.50504" />
    <path
       sodipodi:nodetypes="ccccccscccscccccsscsssscscccsccsccccccccsccscscscscscscsssccsscscccccccccccscccsssscssssccscsscssscsccssccccccsssssscccsscccccssssscsccsssssscccsscccsscssscccccsc"
       inkscape:connector-curvature="0"
       id="path3809"
       d="m 105.50637,382.51516 c -0.10453,-0.18373 -0.0775,-1.41029 0.0383,-1.73856 0.0479,-0.13575 0.0724,-0.28501 0.0546,-0.33166 -0.0334,-0.0868 0.12652,-0.96453 0.21421,-1.17654 0.0268,-0.0646 0.0632,-0.26095 0.081,-0.43623 0.0178,-0.17529 0.0596,-0.34585 0.0927,-0.37903 0.0332,-0.0332 0.0604,-0.13162 0.0604,-0.21876 0,-0.0872 0.0767,-0.4719 0.17042,-0.85503 0.14894,-0.60877 0.26697,-1.05478 0.76757,-2.90027 0.057,-0.21008 0.17523,-0.61996 0.26276,-0.91085 0.0875,-0.29088 0.23833,-0.79332 0.3351,-1.11653 0.57253,-1.91222 1.77869,-5.54133 2.48043,-7.46311 0.0827,-0.22625 0.25416,-0.69691 0.3812,-1.04592 0.39754,-0.9365 0.23822,-0.49362 0.51485,-1.36341 0.0823,-0.19392 0.2117,-0.52447 0.28762,-0.73456 0.076,-0.21008 0.23559,-0.60674 0.35479,-0.88147 0.11919,-0.27472 0.28996,-0.6846 0.37947,-0.91085 0.49993,-1.26361 1.85309,-3.97007 2.5573,-5.1149 0.0589,-0.0956 0.1637,-0.26647 0.23301,-0.3796 2.07132,-3.38034 4.76119,-6.13196 7.80531,-7.98449 2.37459,-1.44507 4.88989,-2.55506 8.38643,-3.70089 2.25598,-0.7393 2.84111,-0.9168 4.61302,-1.39944 1.45572,-0.3965 5.04738,-1.30333 7.16929,-1.81009 0.48481,-0.11578 0.98725,-0.23785 1.11653,-0.27126 0.12928,-0.0334 0.51272,-0.12344 0.85209,-0.20007 0.33936,-0.0766 0.69211,-0.16788 0.78386,-0.20278 0.0918,-0.0349 0.23721,-0.0589 0.32322,-0.0533 0.18959,0.0124 0.54367,-0.0622 0.63209,-0.13312 0.0354,-0.0284 0.49819,-0.15771 1.02838,-0.28734 0.5302,-0.12963 1.10946,-0.2757 1.28721,-0.32459 0.17777,-0.0489 0.53476,-0.13949 0.79332,-0.20133 0.4364,-0.10434 2.63985,-0.66978 4.4955,-1.15362 0.43633,-0.11377 1.03133,-0.26885 1.32221,-0.34463 0.29088,-0.0759 0.93877,-0.24812 1.43973,-0.38297 0.50097,-0.13484 1.24141,-0.33327 1.64541,-0.44097 0.40402,-0.10771 1.02545,-0.27496 1.38098,-0.37169 0.35552,-0.0967 1.00341,-0.2721 1.43972,-0.38972 0.43634,-0.11762 1.071,-0.28977 1.41036,-0.38258 0.33937,-0.0928 0.90792,-0.24828 1.26345,-0.34552 4.48995,-1.22794 6.20575,-1.63908 7.08478,-1.69763 0.54076,-0.0361 0.7603,0.0241 0.7603,0.20811 0,0.16333 -0.46008,0.84592 -0.67969,1.00841 -0.1092,0.0808 -0.19927,0.17437 -0.20017,0.20794 -0.005,0.1845 -2.58904,2.78905 -2.76721,2.78905 -0.0523,0 -0.15883,0.0889 -0.23671,0.19758 -0.19195,0.26785 -1.87393,1.62143 -2.81448,2.26499 -0.51058,0.34937 -1.94116,1.30003 -2.23398,1.48457 -1.29574,0.81658 -3.97579,2.231 -5.37697,2.83775 -0.42016,0.18194 -0.86972,0.38068 -0.999,0.44164 -0.12927,0.061 -0.3805,0.16679 -0.55825,0.23515 -0.17777,0.0684 -0.40254,0.16062 -0.49951,0.20497 -1.20676,0.55213 -6.32325,2.29208 -10.28382,3.49719 -0.54945,0.16718 -1.0651,0.327 -1.14591,0.35515 -0.0807,0.0281 -0.59646,0.18751 -1.14591,0.35415 -4.05777,1.23066 -8.29034,2.62273 -9.96061,3.27598 -0.24241,0.0949 -0.5994,0.23242 -0.79332,0.3058 -0.49822,0.18855 -2.08576,0.85586 -2.61261,1.09821 -5.40399,2.48578 -9.11845,5.54505 -12.43742,10.24356 -1.11047,1.57206 -2.47842,3.75572 -3.60767,5.75896 -0.11843,0.21006 -0.27608,0.48774 -0.35036,0.61701 -0.18747,0.32636 -1.85516,3.39773 -2.23355,4.11353 -0.31237,0.5909 -1.63211,3.12092 -1.88522,3.61404 -1.05864,2.06259 -2.19342,3.9756 -2.71897,4.58364 -0.21086,0.24395 -0.50319,0.47011 -0.60766,0.47011 -0.041,0 -0.10853,-0.0595 -0.1499,-0.13221 z m 57.90175,-42.48078 c 1.23605,-0.75745 3.25377,-2.2729 3.15697,-2.37112 -0.0218,-0.022 -0.40433,0.2201 -0.85023,0.5381 -0.44591,0.318 -0.86866,0.61785 -0.93944,0.66632 -0.43576,0.29851 -1.66651,1.19348 -1.81423,1.31928 -0.1738,0.14799 -0.17413,0.14935 -0.0232,0.0959 0.0842,-0.0298 0.29577,-0.14163 0.47013,-0.24848 z m 4.63621,-3.51728 c 0,-0.11455 -0.0623,-0.15314 -0.13306,-0.0824 -0.0471,0.0471 0.0146,0.19994 0.0806,0.19994 0.0289,0 0.0525,-0.0529 0.0525,-0.11753 z m -57.01563,43.42 c -0.10071,-0.28393 0.77943,-1.02606 2.51139,-2.11756 3.55971,-2.24336 7.16988,-3.73751 11.40034,-4.71828 1.63021,-0.37794 3.98522,-0.7461 6.78732,-1.06102 4.20453,-0.47257 6.45111,-0.85977 8.87347,-1.52938 1.89914,-0.52497 2.0698,-0.56069 2.13961,-0.44772 0.0496,0.0802 -0.26591,0.53085 -0.70537,1.0076 -2.70472,2.93412 -5.91068,4.24698 -12.77581,5.23177 -1.1866,0.17022 -2.6513,0.33929 -5.84709,0.67493 -3.69298,0.38785 -5.40539,0.76036 -8.37397,1.82161 -3.16509,1.13149 -3.93474,1.34993 -4.00989,1.13805 z m 0.22261,-3.22003 c -0.11209,-0.18138 0.4374,-0.89519 1.52058,-1.97529 0.48715,-0.48576 1.13618,-1.10719 1.4423,-1.38096 0.30611,-0.27377 0.66311,-0.59329 0.79332,-0.71003 1.00259,-0.89892 3.21474,-2.63039 4.43843,-3.47399 0.6401,-0.4413 1.55022,-1.02741 2.11553,-1.36241 0.37169,-0.22025 0.82123,-0.4871 0.999,-0.59299 0.42592,-0.2537 2.38568,-1.23461 3.20268,-1.60303 1.71196,-0.77197 3.82432,-1.53676 6.28781,-2.27651 0.70994,-0.21318 3.09272,-0.90088 3.4965,-1.00912 0.30555,-0.0819 0.6646,-0.18895 2.31216,-0.68934 2.45194,-0.7447 4.62006,-1.57709 7.58969,-2.9139 0.12929,-0.0582 0.68093,-0.31985 1.22587,-0.58146 0.54493,-0.26162 1.01715,-0.47566 1.04935,-0.47566 0.0322,0 0.72345,-0.33716 1.53608,-0.74924 1.43789,-0.72916 1.65455,-0.83238 2.32961,-1.10985 0.37688,-0.1549 0.66127,-0.17447 0.76252,-0.0525 0.10254,0.12357 -0.20539,1.09248 -0.36006,1.13293 -0.0784,0.0205 -0.0985,0.0643 -0.0741,0.16101 0.0362,0.14427 -0.2555,0.78875 -0.45598,1.00739 -0.0632,0.0688 -0.174,0.26724 -0.24624,0.44073 -0.45163,1.08465 -1.66426,2.89372 -2.83309,4.22655 -1.8133,2.06771 -3.7248,3.33539 -6.54914,4.34325 -1.90771,0.68077 -3.78572,1.10215 -8.37277,1.87863 -5.29127,0.8957 -6.63027,1.17179 -8.96345,1.84819 -2.79293,0.80969 -5.37893,1.95377 -8.78349,3.88592 -2.69619,1.53016 -3.29429,1.84459 -3.78673,1.99084 -0.35596,0.1057 -0.62615,0.12202 -0.67634,0.0408 z m 1.46321,-4.31897 c -0.43478,-0.3179 1.17316,-3.13895 3.65386,-6.41051 2.7953,-3.68648 4.84615,-5.73341 7.4129,-7.39869 0.69149,-0.44863 1.83655,-1.09703 2.48137,-1.40506 1.03987,-0.49677 2.34094,-1.08582 2.55276,-1.15571 0.12595,-0.0416 0.31047,-0.12238 0.41007,-0.17958 0.0996,-0.0573 0.26519,-0.1215 0.368,-0.14286 0.1028,-0.0214 0.21843,-0.0768 0.25694,-0.12323 0.0385,-0.0464 0.0913,-0.0844 0.11731,-0.0844 0.0261,0 0.62436,-0.22626 1.3297,-0.50282 2.12414,-0.83283 2.95299,-1.1467 4.51447,-1.70952 0.58177,-0.2097 1.30899,-0.47548 1.61604,-0.59063 0.30703,-0.11514 0.80948,-0.29642 1.11652,-0.40283 0.30705,-0.10641 0.80948,-0.28473 1.11652,-0.39627 0.30706,-0.11152 1.27227,-0.45534 2.14492,-0.76402 0.87265,-0.30868 1.93042,-0.68422 2.35059,-0.83454 0.42016,-0.15031 0.93582,-0.33385 1.14591,-0.40786 0.21008,-0.074 1.5984,-0.56376 3.08515,-1.08834 6.14558,-2.16838 8.76111,-3.04489 9.65346,-3.23502 0.56683,-0.12078 0.61277,-0.1227 0.75218,-0.0314 0.17654,0.11568 0.16299,0.18447 -0.13711,0.69652 -0.23263,0.39691 -1.20592,1.70242 -1.80464,2.4206 -1.51757,1.8204 -3.38672,3.62955 -5.14161,4.97662 -0.65575,0.50334 -2.33567,1.63403 -2.42993,1.63548 -0.0383,5.8e-4 -0.18457,0.0789 -0.32502,0.17413 -0.14045,0.0951 -0.51068,0.29608 -0.82271,0.44643 -0.31203,0.15034 -0.83176,0.40182 -1.15498,0.55884 -1.6661,0.80943 -5.05674,1.96855 -8.75593,2.9933 -0.48481,0.13431 -1.04013,0.29325 -1.23406,0.3532 -0.19393,0.0599 -0.47159,0.13855 -0.61703,0.17465 -0.14544,0.0361 -0.47599,0.12846 -0.73456,0.20526 -0.25857,0.0768 -0.84034,0.24938 -1.29282,0.38352 -3.22183,0.9551 -5.76774,1.85533 -8.02138,2.83636 -0.69866,0.30413 -2.56614,1.22852 -2.99701,1.48349 -1.52339,0.90153 -1.95892,1.18225 -3.08514,1.98858 -1.25276,0.89693 -2.20443,1.64433 -3.52588,2.76909 -1.31464,1.11899 -1.86677,1.58075 -2.29182,1.91675 -0.87975,0.69543 -1.49788,1.00336 -1.70704,0.8504 z m 45.34729,-25.62657 c 0.0313,-0.0646 -0.0778,0.0279 -0.24235,0.20567 -0.16457,0.17777 -0.32569,0.3761 -0.35806,0.44075 -0.0323,0.0646 0.0767,-0.0279 0.24235,-0.20568 0.16566,-0.17776 0.32678,-0.37609 0.35806,-0.44074 z"
       style="fill:#3e3e3e" />
    <path
       style="fill:#3e3e3e"
       d="m 79.692053,557.1867 c -0.0773,-6.19476 2.265965,-12.18293 3.870996,-18.11646 4.301795,-12.63277 7.997664,-26.28458 17.498931,-36.16527 9.29546,-9.49468 22.83033,-12.58147 35.23235,-15.87457 16.89005,-3.91963 33.58928,-8.61187 50.37502,-12.9563 2.80591,-1.23965 4.9483,0.0593 1.97605,2.30272 -10.44163,11.79258 -25.4875,17.76433 -40.22392,22.17334 -14.06498,4.67028 -29.36364,7.69869 -40.99865,17.47495 -11.779447,10.34002 -17.335613,25.44515 -25.110801,38.63865 -0.636791,0.63771 -1.50726,3.1199 -2.619976,2.52294 z m 9.217061,-4.30291 c 2.716889,-3.40723 7.138389,-5.19889 10.961334,-7.23986 9.993342,-4.96479 21.271362,-5.49727 32.107092,-7.0934 2.79841,0.16588 8.46079,-3.04326 9.57828,-1.55426 -6.16664,8.07643 -17.09821,9.16168 -26.43258,10.34862 -7.76321,0.64749 -15.550392,1.70857 -22.778147,4.78268 -1.077107,0.23509 -2.350845,1.07888 -3.435979,0.75622 z m 0.371553,-5.37441 c 2.290996,-3.96477 6.359466,-6.7552 9.834891,-9.7206 9.244222,-7.72617 20.781922,-11.76153 32.280792,-14.74315 8.82004,-2.3866 17.01151,-6.49937 25.21212,-10.42578 3.14329,0.071 -1.92139,5.98344 -2.53943,7.86088 -4.10839,6.799 -11.35684,11.01912 -19.05438,12.43949 -12.0769,2.52667 -24.85295,3.32739 -35.714792,9.78001 -3.326925,1.47088 -6.401205,4.38361 -10.019201,4.80915 z m 2.442166,-7.20859 c 0.65023,-4.26047 4.15695,-7.71633 6.532305,-11.26838 5.114402,-7.13782 12.040162,-13.00366 20.340952,-16.05399 14.71769,-6.05655 29.89769,-11.02365 44.92026,-16.30253 1.91096,-0.85188 7.62679,-2.60535 4.02527,1.20465 -6.23255,8.76114 -15.23457,15.54614 -25.63672,18.48118 -13.9218,4.44225 -29.03084,7.17091 -40.52232,16.86707 -3.264382,2.12652 -5.905847,6.01251 -9.659747,7.072 z"
       id="path3813"
       inkscape:connector-curvature="0" />
    <rect
       y="447.28082"
       x="-142.93658"
       height="162.63457"
       width="152.53304"
       id="rect3829"
       style="color:#000000;fill:#000000;fill-opacity:1;fill-rule:nonzero;stroke:none;stroke-width:0.5;marker:none;visibility:visible;display:inline;overflow:visible;enable-background:accumulate" />
    <path
       inkscape:connector-curvature="0"
       id="path3831"
       d="m -123.22678,573.87452 c -0.0773,-6.19476 2.26597,-12.18293 3.871,-18.11646 4.30179,-12.63277 7.99766,-26.28458 17.49893,-36.16527 9.295457,-9.49468 22.830329,-12.58147 35.232349,-15.87457 16.89005,-3.91963 33.58928,-8.61187 50.37502,-12.9563 2.80591,-1.23965 4.9483,0.0593 1.97605,2.30272 -10.44163,11.79258 -25.4875,17.76433 -40.22392,22.17334 -14.06498,4.67028 -29.36364,7.69869 -40.998652,17.47495 -11.779447,10.34002 -17.335607,25.44515 -25.110797,38.63865 -0.63679,0.63771 -1.50726,3.1199 -2.61998,2.52294 z m 9.21706,-4.30291 c 2.71689,-3.40723 7.13839,-5.19889 10.96134,-7.23986 9.993337,-4.96479 21.271359,-5.49727 32.107089,-7.0934 2.79841,0.16588 8.46079,-3.04326 9.57828,-1.55426 -6.16664,8.07643 -17.09821,9.16168 -26.43258,10.34862 -7.763212,0.64749 -15.550389,1.70857 -22.778149,4.78268 -1.07711,0.23509 -2.35084,1.07888 -3.43598,0.75622 z m 0.37156,-5.37441 c 2.29099,-3.96477 6.35946,-6.7552 9.83489,-9.7206 9.244217,-7.72617 20.781919,-11.76153 32.280789,-14.74315 8.82004,-2.3866 17.01151,-6.49937 25.21212,-10.42578 3.14329,0.071 -1.92139,5.98344 -2.53943,7.86088 -4.10839,6.799 -11.35684,11.01912 -19.05438,12.43949 -12.0769,2.52667 -24.852952,3.32739 -35.714789,9.78001 -3.32693,1.47088 -6.40121,4.38361 -10.0192,4.80915 z m 2.44216,-7.20859 c 0.65023,-4.26047 4.15695,-7.71633 6.53231,-11.26838 5.114397,-7.13782 12.040157,-13.00366 20.340949,-16.05399 14.71769,-6.05655 29.89769,-11.02365 44.92026,-16.30253 1.91096,-0.85188 7.62679,-2.60535 4.02527,1.20465 -6.23255,8.76114 -15.23457,15.54614 -25.63672,18.48118 -13.9218,4.44225 -29.03084,7.17091 -40.522319,16.86707 -3.26438,2.12652 -5.90585,6.01251 -9.65975,7.072 z"
       style="fill:#3e3e3e" />
  </g>
</svg>
