<svg id="Layer_1" data-name="Layer 1" xmlns="http://www.w3.org/2000/svg" xmlns:xlink="http://www.w3.org/1999/xlink" viewBox="0 0 170.4 224.69"><defs><style>.cls-1{fill:url(#linear-gradient);}.cls-2{fill:#d67369;}.cls-3{fill:#ee7f70;}.cls-4{fill:#27464f;}.cls-5{fill:#f2c666;}.cls-6{fill:#fff;}.cls-7{fill:url(#linear-gradient-2);}.cls-8{fill:#243e44;}</style><linearGradient id="linear-gradient" x1="3.25" y1="59.95" x2="71.41" y2="59.95" gradientTransform="translate(43.72 61.19) rotate(37.41)" gradientUnits="userSpaceOnUse"><stop offset="0" stop-color="#d67369"/><stop offset="1" stop-color="#ee7f70"/></linearGradient><linearGradient id="linear-gradient-2" x1="-648.53" y1="505.48" x2="-583.01" y2="485.85" gradientTransform="matrix(-0.65, 0.76, 0.76, 0.65, -640.58, 278.91)" xlink:href="#linear-gradient"/></defs><path class="cls-1" d="M52.91,166.71l1.26-47.77a63.14,63.14,0,0,1-28.79-13.22c-4-3.08-10.27-2.63-12.88,1.72-4.5,7.48-.56,20.17,8.29,32.36C31.35,153.29,42,163,52.91,166.71Z"/><path class="cls-2" d="M52.91,166.71l.46-24,.54-23.79.21.26a63.25,63.25,0,0,1-28.18-12.59,9.71,9.71,0,0,0-6.89-2.49,7.53,7.53,0,0,0-6.22,3.44A14.13,14.13,0,0,0,11,114.81a26.62,26.62,0,0,0,1.14,7.55,54,54,0,0,0,6.58,13.91c.7,1.08,1.43,2.15,2.18,3.19s1.59,2,2.4,3c1.63,2,3.3,4,5,5.87s3.53,3.77,5.41,5.54,3.8,3.5,5.83,5.1A48.3,48.3,0,0,0,52.91,166.71Zm0,0a48.12,48.12,0,0,1-13.53-7.5A86.17,86.17,0,0,1,28,148.66c-1.76-1.9-3.44-3.87-5.1-5.87-.82-1-1.64-2-2.43-3s-1.5-2.13-2.21-3.21a54.25,54.25,0,0,1-6.73-14,27.26,27.26,0,0,1-1.22-7.73,14.81,14.81,0,0,1,1.93-7.6A8.26,8.26,0,0,1,19,103.37a10.45,10.45,0,0,1,7.35,2.68,64.29,64.29,0,0,0,13.14,8,63.45,63.45,0,0,0,14.71,4.59.28.28,0,0,1,.22.27l-.73,24Z"/><path class="cls-2" d="M96.29,60.11c.45-.94,5.77-1.6,5.39,1.64l-1.37,4.06Z"/><path class="cls-2" d="M106.55,62.58c1.48-1.31,6.08-1.45,5.38,2.27l-1.19,3.51Z"/><path class="cls-2" d="M149.87,142.55c-23.27,13.36-34-4-33.39-25.29V97.43a35.55,35.55,0,0,0-8.15-22.7l.1,0A17.9,17.9,0,0,0,112,64a1.1,1.1,0,0,0-1.84-.81c-2.92,2.67-6.09,5-8.26,5.48-.42-.31-.83-.64-1.27-.93a19.23,19.23,0,0,0,1.11-6.29c0-1-5.27,2.14-6.88,3.16a35.56,35.56,0,0,0-14-2.86h0A35.68,35.68,0,0,0,45.1,97.43v60.09l72.82,46.36c27.43.12,41.11-19.82,45.92-50.65C165.26,144.13,157.86,138,149.87,142.55Z"/><path class="cls-3" d="M145.63,142.32c-22.8,12.63-33.32-4.57-32.71-25.68V96.81a35.51,35.51,0,0,0-8.15-22.69l.11,0a18,18,0,0,0,3.52-10.75,1.1,1.1,0,0,0-1.85-.83c-2.92,2.66-6.09,5-8.25,5.47h0a2.17,2.17,0,0,1-.81-2.32,20,20,0,0,0,.66-4.86A1.1,1.1,0,0,0,96.29,60a40,40,0,0,1-5,4,35.47,35.47,0,0,0-14-2.87h0A35.69,35.69,0,0,0,41.55,96.81V156.9c18.82,25.3,39.91,50.88,72.73,47,27.34.35,40.93-19.54,46-51.16C161.57,144.56,152.86,138.31,145.63,142.32Z"/><ellipse class="cls-4" cx="54.82" cy="88.55" rx="2.51" ry="2.9"/><ellipse class="cls-4" cx="65.22" cy="88.93" rx="2.51" ry="2.9"/><rect class="cls-4" x="64.51" y="77.89" width="11.39" height="3.98" rx="1.65" transform="translate(22.94 -15.39) rotate(14.92)"/><rect class="cls-4" x="46.81" y="77.21" width="11.39" height="3.98" rx="1.65" transform="matrix(-0.97, 0.26, -0.26, -0.97, 123.65, 142.21)"/><path class="cls-2" d="M41.55,128.08c12.07,1.73,22.48-9,21.9-19.67Z"/><path class="cls-5" d="M36,107.84c6.63,2.09,14.67-.31,18-4.86,1.67-1.81,4-3.35,6.19-2.53,2.95,1.1,4,4.33,3.24,8.46-3.74,14.69-23.82,23.52-32.81,18a9.94,9.94,0,1,1,7-18.61"/><circle class="cls-2" cx="98.21" cy="86.03" r="3.6"/><circle class="cls-2" cx="92.23" cy="91.73" r="1.8"/><circle class="cls-2" cx="98.99" cy="95.1" r="2.63"/><path class="cls-6" d="M36.25,121.84c4.14,2.77,9.34,1.75,11.15-4.27a.47.47,0,0,0-.7-.52A30.86,30.86,0,0,1,36.41,121,.47.47,0,0,0,36.25,121.84Z"/><path class="cls-2" d="M41.69,151.21c.23,7.37.63,14.48,1.35,21.1a31.08,31.08,0,0,0,16.63,24.4c15.22,7.76,36.5,10.62,58.25,7.17C84.5,200.69,56,191.18,51.69,150.49a5,5,0,0,0-5-4.46h0A5,5,0,0,0,41.69,151.21Z"/><path class="cls-7" d="M105.1,176.05c36.44-8.14,62.39-62.05,48.16-77.13-3.48-3.69-9.67-2.79-12.95,1.08-12.17,15.12-27.75,21.78-45.29,24.55"/><path class="cls-2" d="M105.08,176a54.21,54.21,0,0,0,9.9-3.51,67.27,67.27,0,0,0,9-5.39,77.29,77.29,0,0,0,8-6.76,84.91,84.91,0,0,0,7.05-7.77,89.44,89.44,0,0,0,6.09-8.54,85.17,85.17,0,0,0,5-9.17,62.33,62.33,0,0,0,6-19.88,26.8,26.8,0,0,0-.71-10.12,6,6,0,0,0-.42-1.17c-.16-.38-.29-.78-.47-1.15l-.62-1.06c-.11-.17-.2-.36-.32-.52l-.39-.47c-.26-.31-.5-.65-.77-.93a5.59,5.59,0,0,0-.88-.73,5.83,5.83,0,0,0-2.07-1,8.6,8.6,0,0,0-8.45,2.85,74.85,74.85,0,0,1-7.36,7.76,63.12,63.12,0,0,1-18.15,11.13,73.94,73.94,0,0,1-10.12,3.23A95.13,95.13,0,0,1,95,124.65a.12.12,0,0,1-.12-.09.11.11,0,0,1,.08-.11,93.42,93.42,0,0,0,20-6.16A63.79,63.79,0,0,0,132.39,107a72.88,72.88,0,0,0,7.1-7.59,10.53,10.53,0,0,1,10.57-3.44,8.36,8.36,0,0,1,4.7,3.37l.44.56c.13.19.23.41.35.61l.69,1.23c.2.42.34.86.52,1.3a8.77,8.77,0,0,1,.44,1.31,28.37,28.37,0,0,1,.58,10.8,63.48,63.48,0,0,1-6.41,20.27,85.68,85.68,0,0,1-5.25,9.23,90.7,90.7,0,0,1-6.28,8.55,84.33,84.33,0,0,1-7.28,7.72,77.6,77.6,0,0,1-8.23,6.67,67.86,67.86,0,0,1-9.18,5.26,54.7,54.7,0,0,1-10,3.35.1.1,0,1,1,0-.2Z"/><path class="cls-5" d="M57.71,189.45c-1.82,1-14.36,8.34-16.63,8.62a6,6,0,0,0-5.25,4.34l0,.19c-.8,3.51-1.24,8.86,2.9,8.55,4.63-.35,22.44-10.68,25.86-13.08,2.51-1.76,4-5.22,1.17-7.8h0C63.16,187.4,60.51,187.94,57.71,189.45Z"/><ellipse class="cls-8" cx="31.37" cy="194.47" rx="14.5" ry="22.04" transform="translate(-51.28 15.66) rotate(-15.64)"/><path class="cls-5" d="M119.91,189.45c1.82,1,14.36,8.34,16.63,8.62a6,6,0,0,1,5.25,4.34l0,.19c.8,3.51,1.24,8.86-2.9,8.55-4.63-.35-22.44-10.68-25.85-13.08-2.52-1.76-4.06-5.22-1.18-7.8h0C114.47,187.4,117.11,187.94,119.91,189.45Z"/><ellipse class="cls-8" cx="146.26" cy="194.47" rx="22.04" ry="14.5" transform="translate(-80.45 282.87) rotate(-74.36)"/></svg>