<svg id="Layer_1" data-name="Layer 1" xmlns="http://www.w3.org/2000/svg" xmlns:xlink="http://www.w3.org/1999/xlink" viewBox="0 0 170.4 224.69"><defs><style>.cls-1{fill:#f2c666;}.cls-2{fill:#27464f;}.cls-3{fill:#f2f2f2;}.cls-4{clip-path:url(#clip-path);}.cls-5{fill:#d3aa59;}.cls-6{fill:#243e44;}.cls-7{fill:url(#linear-gradient);}.cls-8{fill:#d67369;}.cls-9{fill:#ee7f70;}.cls-10{fill:#fff;}.cls-11{fill:url(#linear-gradient-2);}.cls-12{clip-path:url(#clip-path-2);}</style><clipPath id="clip-path"><path class="cls-1" d="M74.66,133.59a4.75,4.75,0,0,0-4,4.93l.94,27A8.85,8.85,0,0,0,73.48,170h0l10.41,11c1.65,1.75,4.12,1.53,6,.05,2.18-1.7,2.67-4.28.82-6.24L81.9,165.5a4.19,4.19,0,0,1-1.15-2.77L79.89,138A4.62,4.62,0,0,0,74.66,133.59Z"/></clipPath><linearGradient id="linear-gradient" x1="-4.09" y1="84.75" x2="64.07" y2="84.75" gradientTransform="translate(39.58 -0.11) rotate(23.32)" gradientUnits="userSpaceOnUse"><stop offset="0" stop-color="#d67369"/><stop offset="1" stop-color="#ee7f70"/></linearGradient><linearGradient id="linear-gradient-2" x1="-365.85" y1="325.56" x2="-300.33" y2="305.93" gradientTransform="matrix(-0.65, 0.76, 0.76, 0.65, -327.19, 133.56)" xlink:href="#linear-gradient"/><clipPath id="clip-path-2"><path class="cls-1" d="M96.71,136.92A4.75,4.75,0,0,0,94.85,143l10.94,24.65a8.92,8.92,0,0,0,3.44,3.52h0L123,177.5c2.19,1,4.4-.13,5.61-2.21,1.39-2.39.89-5-1.57-6.1l-11.7-5.38a4.25,4.25,0,0,1-2.1-2.14l-10-22.61A4.62,4.62,0,0,0,96.71,136.92Z"/></clipPath></defs><path class="cls-2" d="M91.53,196.18a9.6,9.6,0,0,0-9.26,3.18A10,10,0,0,0,80.43,208c.94,4.5,3.73,7.77,8,10,10.63-2.08,20.69-15.69,21.1-20.49A101.42,101.42,0,0,0,99.22,181.9l-14.79,7.63A9.14,9.14,0,0,1,85.1,197C84.5,199.09,89.39,196.46,91.53,196.18Z"/><ellipse class="cls-3" cx="89.93" cy="182.2" rx="9.54" ry="7.51" transform="translate(-82.58 74.84) rotate(-31.83)"/><path class="cls-1" d="M74.66,133.59a4.75,4.75,0,0,0-4,4.93l.94,27A8.85,8.85,0,0,0,73.48,170h0l10.41,11c1.65,1.75,4.12,1.53,6,.05,2.18-1.7,2.67-4.28.82-6.24L81.9,165.5a4.19,4.19,0,0,1-1.15-2.77L79.89,138A4.62,4.62,0,0,0,74.66,133.59Z"/><g class="cls-4"><path class="cls-5" d="M79.26,132.32a4.77,4.77,0,0,0-4,4.94l.94,27a8.77,8.77,0,0,0,1.88,4.56h0l10.41,11c1.65,1.75,4.12,1.53,6,0,2.18-1.7,2.67-4.28.82-6.24l-8.84-9.37a4.22,4.22,0,0,1-1.15-2.77l-.86-24.73A4.63,4.63,0,0,0,79.26,132.32Z"/></g><path class="cls-6" d="M89.13,196c-3.54,1.31-6.14,3.48-7.25,7a1.15,1.15,0,0,0,.79,1.45h0a1.13,1.13,0,0,0,1.35-.71A9.69,9.69,0,0,1,90,198.07a1.1,1.1,0,0,0,.62-1.4h0A1.12,1.12,0,0,0,89.13,196Z"/><path class="cls-6" d="M88.47,218c6.88-.74,21.28-14.9,21.1-20.49l-.75-1.4c-2.81,8.56-10.28,15.73-21.4,21.3Z"/><path class="cls-7" d="M57.62,119.87,47.22,73.23a63.17,63.17,0,0,1-31.15-5.82c-4.66-2-10.6,0-12.07,4.8-2.54,8.36,4.37,19.71,15.92,29.37C33.45,112.1,46.16,118.87,57.62,119.87Z"/><path class="cls-8" d="M57.62,119.87,52.23,96.5,47,73.29l.28.2A64.75,64.75,0,0,1,31.7,72.7a64.94,64.94,0,0,1-14.87-4.56,9.69,9.69,0,0,0-7.28-.74,7.52,7.52,0,0,0-5.2,4.85,14.1,14.1,0,0,0,0,7.49,26.37,26.37,0,0,0,3,7.05A53.74,53.74,0,0,0,17,98.67c.95.88,1.91,1.74,2.89,2.57s2,1.58,3.06,2.36c2.08,1.54,4.17,3.05,6.33,4.47s4.34,2.8,6.59,4.06,4.54,2.46,6.9,3.52A48.33,48.33,0,0,0,57.62,119.87Zm0,0a48.34,48.34,0,0,1-14.95-4,86.07,86.07,0,0,1-13.61-7.47c-2.18-1.41-4.29-2.91-6.38-4.44-1-.78-2.07-1.56-3.09-2.36s-2-1.69-2.93-2.57a54.65,54.65,0,0,1-9.94-12,27,27,0,0,1-3.06-7.2,14.83,14.83,0,0,1,0-7.85,8.27,8.27,0,0,1,5.65-5.36,10.45,10.45,0,0,1,7.78.81,64.34,64.34,0,0,0,14.7,4.6A64.52,64.52,0,0,0,47.2,73a.27.27,0,0,1,.28.2L52.61,96.6Z"/><path class="cls-8" d="M87.06,7c1.25-1.7,5.55-1.67,5.55,1l-.9,4.19Z"/><path class="cls-8" d="M97.39,8.46c1.1-1.68,5.76-2.06,5.75,1.49l-.78,3.62Z"/><path class="cls-8" d="M149.65,82.84C128,98.75,115.41,82.75,113.6,61.5l-1-9.11-.36-3.22-.85-7.37a35.47,35.47,0,0,0-10.67-21.63l.11,0A18,18,0,0,0,103.07,9.1a1.1,1.1,0,0,0-1.93-.59c-2.6,3-5.48,5.68-7.58,6.37-.46-.26-.9-.53-1.37-.77a19.29,19.29,0,0,0,.39-6.38c-.09-1-5,2.72-6.47,3.92a35.69,35.69,0,0,0-14.26-1.26h0A35.7,35.7,0,0,0,40.44,49.9l1.49,13L46.4,102l.86,7.56,77.61,37.8c27.26-3,38.59-24.35,39.87-55.53C165.12,82.66,157.07,77.37,149.65,82.84Z"/><path class="cls-9" d="M52.76,137c4.33,5.16,11.41,10.1,18.11,10.73l14.82,3.22c4.83.79,10.76.21,17.08-.86l.76-2.13,1.84-2.8,4.15-3.38,3.34-2.47,8.67-6.42"/><path class="cls-9" d="M145.41,83.09c-21.22,15.14-33.62-.76-35.41-21.8l-1-9.11L108.59,49l-.84-7.37A35.53,35.53,0,0,0,97.08,20l.11,0A18,18,0,0,0,99.47,8.92a1.1,1.1,0,0,0-1.93-.62c-2.6,3-5.48,5.68-7.58,6.37h0a2.21,2.21,0,0,1-1.07-2.22A20.26,20.26,0,0,0,89,7.54a1.1,1.1,0,0,0-1.93-.62,38.64,38.64,0,0,1-4.55,4.52,35.64,35.64,0,0,0-14.25-1.26h0A35.69,35.69,0,0,0,36.84,49.69l1.49,13,4.46,39.1.87,7.56c21.57,23,45.42,46,77.59,38.42,27.2-2.75,38.45-24.06,39.88-56C161.5,83.51,152.14,78.29,145.41,83.09Z"/><ellipse class="cls-2" cx="49.09" cy="39.97" rx="2.51" ry="2.9" transform="translate(-4.22 5.83) rotate(-6.51)"/><ellipse class="cls-2" cx="59.47" cy="39.17" rx="2.51" ry="2.9" transform="translate(-4.06 7) rotate(-6.51)"/><rect class="cls-2" x="57.7" y="27.62" width="11.39" height="3.98" rx="1.65" transform="translate(5.01 -8.95) rotate(8.41)"/><rect class="cls-2" x="40.04" y="28.96" width="11.39" height="3.98" rx="1.65" transform="translate(99.61 43.04) rotate(158.56)"/><path class="cls-8" d="M40.39,80.75c12.18.35,21.31-11.45,19.53-22Z"/><path class="cls-1" d="M32.58,61.27c6.83,1.32,14.54-2,17.35-6.88,1.45-2,3.62-3.77,5.87-3.21,3.05.76,4.5,3.85,4.17,8-2,15-21,26.07-30.55,21.62a9.95,9.95,0,1,1,4.81-19.29"/><circle class="cls-8" cx="91.91" cy="32.55" r="3.6"/><circle class="cls-8" cx="86.62" cy="38.89" r="1.8"/><circle class="cls-8" cx="93.71" cy="41.47" r="2.63"/><path class="cls-10" d="M34.42,75.15c4.42,2.29,9.47.68,10.59-5.5a.46.46,0,0,0-.75-.44,31.12,31.12,0,0,1-9.78,5.08A.47.47,0,0,0,34.42,75.15Z"/><path class="cls-8" d="M43.15,103.71c1.06,7.3,2.27,14.32,3.73,20.82a31.13,31.13,0,0,0,19.3,22.36c16,6,37.46,6.4,58.69.51-33.57.62-63-5.59-71.87-45.53A5,5,0,0,0,47.54,98h0A5,5,0,0,0,43.15,103.71Z"/><path class="cls-11" d="M98.55,130.27C135,122.13,161,68.22,146.71,53.14c-3.48-3.69-9.67-2.79-13,1.08C121.6,69.34,106,76,88.47,78.76"/><path class="cls-8" d="M98.53,130.17a54.24,54.24,0,0,0,9.9-3.52,65.23,65.23,0,0,0,9-5.39,78.36,78.36,0,0,0,8-6.75,83.62,83.62,0,0,0,7-7.78,88.06,88.06,0,0,0,6.09-8.53A82.7,82.7,0,0,0,143.65,89a62.27,62.27,0,0,0,6-19.87A26.6,26.6,0,0,0,148.93,59a6.86,6.86,0,0,0-.41-1.18c-.17-.38-.3-.77-.48-1.14l-.62-1.06a5.58,5.58,0,0,0-.32-.52l-.38-.47c-.26-.31-.51-.65-.78-.93a5.59,5.59,0,0,0-.88-.73,5.83,5.83,0,0,0-2.07-1,8.56,8.56,0,0,0-8.44,2.85,74.9,74.9,0,0,1-7.37,7.75A63.11,63.11,0,0,1,109,73.79,74.52,74.52,0,0,1,98.91,77a95.1,95.1,0,0,1-10.42,1.84.09.09,0,0,1-.11-.08.09.09,0,0,1,.08-.11,93.51,93.51,0,0,0,20-6.16,63.79,63.79,0,0,0,17.35-11.34,71.82,71.82,0,0,0,7.1-7.59,10.51,10.51,0,0,1,10.57-3.44,8.32,8.32,0,0,1,4.7,3.37l.44.56c.14.19.24.4.36.6l.68,1.24c.2.42.35.86.52,1.29a9.29,9.29,0,0,1,.44,1.32,28.37,28.37,0,0,1,.58,10.8,63.56,63.56,0,0,1-6.41,20.27,85.68,85.68,0,0,1-5.25,9.23,90.7,90.7,0,0,1-6.28,8.55,86.86,86.86,0,0,1-7.27,7.71,77.57,77.57,0,0,1-8.24,6.68A66.16,66.16,0,0,1,108.6,127a53.71,53.71,0,0,1-10,3.35.1.1,0,0,1-.12-.07A.1.1,0,0,1,98.53,130.17Z"/><path class="cls-2" d="M135.76,188.67a9.58,9.58,0,0,0-7.4,6.41,10.06,10.06,0,0,0,1.52,8.73c2.56,3.82,6.37,5.8,11.2,6.28,9.09-5.91,13.33-22.3,11.92-26.9a101.86,101.86,0,0,0-15.45-10.65l-10.87,12.61a9.14,9.14,0,0,1,3.42,6.69C130.32,194,133.87,189.72,135.76,188.67Z"/><ellipse class="cls-3" cx="129.04" cy="176.29" rx="9.54" ry="7.51" transform="translate(-89.43 176.26) rotate(-53.79)"/><path class="cls-1" d="M96.71,136.92A4.75,4.75,0,0,0,94.85,143l10.94,24.65a8.92,8.92,0,0,0,3.44,3.52h0L123,177.5c2.19,1,4.4-.13,5.61-2.21,1.39-2.39.89-5-1.57-6.1l-11.7-5.38a4.25,4.25,0,0,1-2.1-2.14l-10-22.61A4.62,4.62,0,0,0,96.71,136.92Z"/><g class="cls-12"><path class="cls-5" d="M101.6,134.81c-2.1,1.18-6.42-2.29-5.44-.09l14.53,30.81a8.79,8.79,0,0,0,3.44,3.52h0l13.78,6.34c2.19,1,4.4-.12,5.61-2.21,1.39-2.39.88-5-1.57-6.1l-11.7-5.38a4.25,4.25,0,0,1-2.11-2.13L108.1,137A4.61,4.61,0,0,0,101.6,134.81Z"/></g><path class="cls-6" d="M133.47,189.41c-2.79,2.55-4.39,5.52-4.12,9.19a1.15,1.15,0,0,0,1.28,1h0a1.11,1.11,0,0,0,1-1.15A9.72,9.72,0,0,1,135,191a1.08,1.08,0,0,0,.05-1.52h0A1.1,1.1,0,0,0,133.47,189.41Z"/><path class="cls-6" d="M142.17,210.31c5.85-3.13,13.58-20.87,11.42-25.78l-1.18-1c.58,8.61-3.49,17.67-11.39,26.61Z"/></svg>