<svg id="Layer_1" data-name="Layer 1" xmlns="http://www.w3.org/2000/svg" xmlns:xlink="http://www.w3.org/1999/xlink" viewBox="0 0 174.4 224.69"><defs><style>.cls-1{fill:#f2c666;}.cls-2{fill:#27464f;}.cls-3{fill:#f2f2f2;}.cls-4{clip-path:url(#clip-path);}.cls-5{fill:#d3aa59;}.cls-6{fill:#243e44;}.cls-7{fill:url(#linear-gradient);}.cls-8{fill:#d67369;}.cls-9{fill:#ee7f70;}.cls-10{fill:#fff;}.cls-11{fill:url(#linear-gradient-2);}.cls-12{clip-path:url(#clip-path-2);}</style><clipPath id="clip-path"><path class="cls-1" d="M100.46,137.1A5,5,0,0,0,94,138.69L77.73,161.78a9.2,9.2,0,0,0-1.32,5h0l1.71,15.79c.27,2.51,2.48,3.89,5,3.85,2.9,0,4.94-1.87,4.64-4.68l-1.45-13.41a4.38,4.38,0,0,1,.79-3L102,144.1A4.85,4.85,0,0,0,100.46,137.1Z"/></clipPath><linearGradient id="linear-gradient" x1="4.9" y1="99.51" x2="53.89" y2="99.51" gradientUnits="userSpaceOnUse"><stop offset="0" stop-color="#d67369"/><stop offset="1" stop-color="#ee7f70"/></linearGradient><linearGradient id="linear-gradient-2" x1="-26.16" y1="151.64" x2="39.36" y2="132.02" gradientTransform="matrix(-0.61, 0.79, 0.79, 0.61, 21.08, -10.41)" xlink:href="#linear-gradient"/><clipPath id="clip-path-2"><path class="cls-1" d="M114,129.3a5,5,0,0,0-3.55,5.62l4.23,27.92a9.23,9.23,0,0,0,2.5,4.51h0l12.16,10.22c1.94,1.62,4.48,1.09,6.28-.68,2.07-2,2.27-4.77.1-6.59l-10.32-8.68a4.42,4.42,0,0,1-1.54-2.74L120,133.26A4.85,4.85,0,0,0,114,129.3Z"/></clipPath></defs><path class="cls-2" d="M93,190v17.42a4,4,0,0,1-4,4H61.47a4,4,0,0,1-4-3.87c-.24-11,5.16-18.15,19-14.79"/><path class="cls-3" d="M83.59,194.22c4.83.05,9.93-1.91,9.93-6.62,0-4.32-2.55-5.81-5.76-4.86H78.47c-3.21-1-5.76.54-5.76,4.86,0,4.71,6.05,6.67,10.88,6.62"/><path class="cls-1" d="M100.46,137.1A5,5,0,0,0,94,138.69L77.73,161.78a9.2,9.2,0,0,0-1.32,5h0l1.71,15.79c.27,2.51,2.48,3.89,5,3.85,2.9,0,4.94-1.87,4.64-4.68l-1.45-13.41a4.38,4.38,0,0,1,.79-3L102,144.1A4.85,4.85,0,0,0,100.46,137.1Z"/><g class="cls-4"><path class="cls-5" d="M106.08,137.41A5,5,0,0,0,99.63,139L83.35,162.09a9.28,9.28,0,0,0-1.31,5h0l3.31,27.19c.27,2.51.87-7.51,3.4-7.55,2.9,0,4.94-1.87,4.64-4.68l-1.45-13.41a4.43,4.43,0,0,1,.78-3l14.93-21.18A4.84,4.84,0,0,0,106.08,137.41Z"/></g><path class="cls-6" d="M70,192.16c-4,0-7.28,1.23-9.63,4.28a1.19,1.19,0,0,0,.26,1.71h0a1.18,1.18,0,0,0,1.58-.21,10.12,10.12,0,0,1,7.88-3.46,1.15,1.15,0,0,0,1.1-1.15h0A1.18,1.18,0,0,0,70,192.16Z"/><rect class="cls-6" x="61.28" y="208.64" width="29.89" height="3.17" rx="1.23"/><path class="cls-7" d="M31.2,116.21c-14.44-4.31-25.28-12-26.26-20.67-.56-5,4.12-9.19,9.19-9.19a63.12,63.12,0,0,0,30.91-7l8.85,40.3"/><path class="cls-8" d="M31.2,116.21a71,71,0,0,1-9.6-3.49,45,45,0,0,1-8.85-5.14A29.67,29.67,0,0,1,9,104.12a18.12,18.12,0,0,1-3-4.23,12.54,12.54,0,0,1-1.39-5A7.46,7.46,0,0,1,5,92.27a7.63,7.63,0,0,1,1.24-2.34,9.86,9.86,0,0,1,4.14-3.17,10.9,10.9,0,0,1,2.55-.67,20.88,20.88,0,0,1,2.6-.08,63.85,63.85,0,0,0,29.37-6.94.32.32,0,0,1,.44.14l0,.08,4.32,20.17,4.21,20.2-4.64-20.1L44.72,79.43l.47.23A63.75,63.75,0,0,1,25.75,86a65,65,0,0,1-10.23.71,18.83,18.83,0,0,0-2.51.06,9.32,9.32,0,0,0-6.26,3.54A7.2,7.2,0,0,0,5.6,92.47a6.77,6.77,0,0,0-.37,2.4A12,12,0,0,0,6.5,99.64a6.46,6.46,0,0,0,.59,1.1c.22.36.42.73.66,1.07a23,23,0,0,0,1.57,2,28.8,28.8,0,0,0,3.7,3.45A58.71,58.71,0,0,0,31.2,116.21Z"/><path class="cls-8" d="M99.78,2.83c.83-1.11,5.67-.83,5.39,1.65l-1.37,4C102,7.45,100.73,5.42,99.78,2.83Z"/><path class="cls-8" d="M110,5.3c1.41-1.39,6-.75,5.38,2.27l-1.19,3.51Z"/><path class="cls-8" d="M153.36,85.27c-23.27,13.36-34-4-33.39-25.29V40.16a35.53,35.53,0,0,0-8.15-22.7l.1.05a17.93,17.93,0,0,0,3.52-10.78,1.09,1.09,0,0,0-1.84-.81c-2.93,2.67-6.09,5-8.26,5.47-.42-.31-.83-.63-1.27-.92a19.33,19.33,0,0,0,1.11-6.3c0-1-5.27,2.14-6.88,3.17a35.56,35.56,0,0,0-14-2.87h0A35.69,35.69,0,0,0,48.59,40.16v60.08l72.82,46.37c27.43.11,41.11-19.82,45.92-50.65C168.75,86.85,161.35,80.68,153.36,85.27Z"/><path class="cls-9" d="M51,128.08c3.72,5.61,10.19,11.32,16.78,12.71l14.35,4.88c4.72,1.33,10.67,1.43,17.08,1.09l1-2,2.14-2.57,4.51-2.89,3.61-2.08,9.33-5.39"/><path class="cls-9" d="M149.12,85c-22.8,12.63-33.32-4.57-32.71-25.68V39.54a35.55,35.55,0,0,0-8.15-22.7l.11.05a18,18,0,0,0,3.52-10.75A1.1,1.1,0,0,0,110,5.3c-2.92,2.67-6.09,5-8.25,5.48h0A2.18,2.18,0,0,1,101,8.44a19.94,19.94,0,0,0,.66-4.86,1.09,1.09,0,0,0-1.84-.83,39.9,39.9,0,0,1-5,4,35.65,35.65,0,0,0-14-2.87h0A35.68,35.68,0,0,0,45,39.54V99.62c18.82,25.3,39.91,50.89,72.73,47,27.34.35,40.93-19.55,46-51.16C165.06,87.28,156.35,81,149.12,85Z"/><ellipse class="cls-2" cx="58.31" cy="31.28" rx="2.51" ry="2.9"/><ellipse class="cls-2" cx="68.71" cy="31.66" rx="2.51" ry="2.9"/><rect class="cls-2" x="68" y="20.62" width="11.39" height="3.98" rx="1.65" transform="translate(8.31 -18.22) rotate(14.92)"/><rect class="cls-2" x="50.3" y="19.94" width="11.39" height="3.98" rx="1.65" transform="translate(115.76 28.69) rotate(165.08)"/><path class="cls-8" d="M45,70.8c12.06,1.73,22.48-9,21.9-19.67Z"/><path class="cls-1" d="M39.49,50.57c6.63,2.08,14.67-.32,18-4.87,1.67-1.81,4-3.34,6.19-2.53,3,1.11,4,4.33,3.24,8.46-3.74,14.69-23.82,23.52-32.81,18A9.94,9.94,0,1,1,41.1,51"/><circle class="cls-8" cx="101.7" cy="28.76" r="3.6"/><circle class="cls-8" cx="95.72" cy="34.46" r="1.8"/><circle class="cls-8" cx="102.47" cy="37.83" r="2.63"/><path class="cls-10" d="M39.74,64.56c4.14,2.78,9.34,1.75,11.15-4.26a.47.47,0,0,0-.7-.53A31.09,31.09,0,0,1,39.9,63.72.46.46,0,0,0,39.74,64.56Z"/><path class="cls-8" d="M45.17,93.93c.24,7.37.64,14.48,1.36,21.1a31.09,31.09,0,0,0,16.63,24.41c15.22,7.75,36.5,10.61,58.25,7.17C88,143.42,59.48,133.91,55.18,93.22a5,5,0,0,0-5-4.46h0A5,5,0,0,0,45.17,93.93Z"/><path class="cls-11" d="M101.58,129.49c36-9.91,59.28-65,44.32-79.39-3.66-3.52-9.79-2.32-12.88,1.71-11.41,15.7-26.65,23.11-44,26.73"/><path class="cls-8" d="M101.55,129.39a53.73,53.73,0,0,0,9.71-4,66.7,66.7,0,0,0,8.74-5.82,77.59,77.59,0,0,0,7.69-7.15,83.33,83.33,0,0,0,6.65-8.11A87.59,87.59,0,0,0,140,95.5a85.17,85.17,0,0,0,4.59-9.41,62.16,62.16,0,0,0,5-20.14,26.58,26.58,0,0,0-1.2-10.08,7.75,7.75,0,0,0-.48-1.15c-.18-.37-.33-.76-.53-1.12l-.67-1a5.65,5.65,0,0,0-.34-.51l-.41-.45c-.27-.29-.53-.62-.82-.89a6,6,0,0,0-.91-.68,5.77,5.77,0,0,0-2.12-.85,8.55,8.55,0,0,0-8.29,3.26,74.65,74.65,0,0,1-7,8.11,63.3,63.3,0,0,1-17.58,12,74.48,74.48,0,0,1-10,3.72A95,95,0,0,1,89,78.64a.1.1,0,0,1-.12-.08.1.1,0,0,1,.08-.11,93.65,93.65,0,0,0,19.7-7.14,63.76,63.76,0,0,0,16.78-12.17,71.82,71.82,0,0,0,6.72-7.93,10.54,10.54,0,0,1,10.39-4,8.41,8.41,0,0,1,4.86,3.14l.46.54a6,6,0,0,1,.39.59l.74,1.2c.22.41.39.84.58,1.27a7.52,7.52,0,0,1,.51,1.29A28.36,28.36,0,0,1,151.21,66a63.56,63.56,0,0,1-5.41,20.55,85.08,85.08,0,0,1-4.8,9.48,86.79,86.79,0,0,1-5.85,8.85,84,84,0,0,1-6.89,8.06,77.76,77.76,0,0,1-7.89,7.07,67.09,67.09,0,0,1-8.92,5.7,54.64,54.64,0,0,1-9.85,3.84.1.1,0,0,1-.12-.07A.11.11,0,0,1,101.55,129.39Z"/><path class="cls-2" d="M145.21,172.61l12.49,13a3.39,3.39,0,0,1-.1,4.79l-20.76,19.9a3.4,3.4,0,0,1-4.71,0c-8.17-7.86-9.48-17,3-24.22"/><path class="cls-3" d="M141.35,182.2c3.52-3.31,5.84-8.25,2.59-11.65-3-3.12-5.86-2.43-7.52.48l-6.71,6.43c-3,1.54-3.78,4.37-.79,7.49,3.26,3.4,9,.63,12.43-2.75"/><path class="cls-1" d="M114,129.3a5,5,0,0,0-3.55,5.62l4.23,27.92a9.23,9.23,0,0,0,2.5,4.51h0l12.16,10.22c1.94,1.62,4.48,1.09,6.28-.68,2.07-2,2.27-4.77.1-6.59l-10.32-8.68a4.42,4.42,0,0,1-1.54-2.74L120,133.26A4.85,4.85,0,0,0,114,129.3Z"/><g class="cls-12"><path class="cls-5" d="M118.84,127.25c-2.45.62-6.37-10.09-6-7.59l6.68,41.14a9.16,9.16,0,0,0,2.5,4.51h0l18.1,15.37c1.93,1.62-1.46-4.06.34-5.83,2.06-2,2.27-4.77.1-6.59l-10.33-8.68a4.43,4.43,0,0,1-1.53-2.73l-3.89-25.62A4.84,4.84,0,0,0,118.84,127.25Z"/></g><path class="cls-6" d="M131.47,189.2c-3.17,2.36-5.14,5.3-5.23,9.15a1.19,1.19,0,0,0,1.22,1.22h0a1.18,1.18,0,0,0,1.15-1.1,10.13,10.13,0,0,1,4.3-7.46,1.15,1.15,0,0,0,.2-1.58h0A1.16,1.16,0,0,0,131.47,189.2Z"/><rect class="cls-6" x="131.27" y="197.98" width="29.89" height="3.17" rx="1.23" transform="translate(-98.29 161.84) rotate(-45)"/></svg>