<svg id="Layer_1" data-name="Layer 1" xmlns="http://www.w3.org/2000/svg" viewBox="0 0 233.77 255.2"><defs><clipPath id="clip-path"><path class="cls-1" d="M104.71 197.58h13.6v25.55a4.44 4.44 0 0 1-4.44 4.44h-4.72a4.44 4.44 0 0 1-4.44-4.44v-25.55Z"/></clipPath><clipPath id="clip-path-2"><path class="cls-1" d="M159.11 197.58h13.6v25.55a4.44 4.44 0 0 1-4.44 4.44h-4.72a4.44 4.44 0 0 1-4.44-4.44v-25.55Z"/></clipPath><style>.cls-1{fill:#f2c666}.cls-2{fill:#ccc}.cls-4{fill:#27464f}.cls-5{fill:#243e44}.cls-6{fill:#f2f2f2}.cls-8{fill:#cea85b}.cls-10,.cls-13{fill:none;stroke-linecap:round;stroke-linejoin:round}.cls-10{stroke:#27464f}.cls-11{fill:#fff}.cls-13{stroke:#000;stroke-width:.53px}.cls-14{fill:#ea5353}</style></defs><path class="cls-2" d="M208.61 105.66a31.63 31.63 0 0 1 9.32-9.66 9.7 9.7 0 0 1 15.14 6.63c2.64 18.12-2.22 33.5-13.82 46.41"/><path d="M72.14 86.45c-16.37 23.39-38.38 33.15-65.42 30.72a6.18 6.18 0 0 0-6.06 8.91C12.14 148.86 51.5 154.34 75.49 137" style="fill:#b8dddb"/><path class="cls-4" d="M103.74 237A13.56 13.56 0 0 0 78 243v6.12h43.63v-22.69l-22.43 2.43-3.72 1.14"/><path class="cls-5" d="M78 249.11h43.63v4.81a1.28 1.28 0 0 1-1.28 1.28h-39.9a2.46 2.46 0 0 1-2.45-2.46v-3.63ZM131.79 249.11h43.63v4.81a1.28 1.28 0 0 1-1.28 1.28h-39.9a2.46 2.46 0 0 1-2.46-2.46v-3.63h.01ZM100 232.39c-9.17-6.94-19.54-1.39-21.67 7.61 4.86-7.42 11.94-10.23 21.67-7.61Z"/><path class="cls-4" d="M157.54 237.56a13.56 13.56 0 0 0-25.75 5.95v6.13h43.64V227L153 229.38l-3.72 1.15"/><path class="cls-5" d="M153.81 232.91c-9.17-6.94-19.55-1.37-21.68 7.58 4.87-7.39 11.95-10.2 21.68-7.58Z"/><path class="cls-6" d="M101.29 220.77H120a4.35 4.35 0 0 1 4.35 4.35v4.72a4.55 4.55 0 0 1-4.55 4.55h-18.32a4.55 4.55 0 0 1-4.55-4.55v-4.72a4.35 4.35 0 0 1 4.36-4.35ZM156.11 221.72h18.71a4.35 4.35 0 0 1 4.35 4.35v4.72a4.55 4.55 0 0 1-4.55 4.55h-18.31a4.55 4.55 0 0 1-4.55-4.55v-4.72a4.35 4.35 0 0 1 4.35-4.35Z"/><path class="cls-1" d="M104.71 197.58h13.6v25.55a4.44 4.44 0 0 1-4.44 4.44h-4.72a4.44 4.44 0 0 1-4.44-4.44v-25.55Z"/><path class="cls-8" d="M117.63 227.58c-3.75 0-7.29 5.44-7.29 1.69l.49-31.69h13.6v23.2a6.8 6.8 0 0 1-6.8 6.8Z" style="clip-path:url(#clip-path)"/><path class="cls-1" d="M159.11 197.58h13.6v25.55a4.44 4.44 0 0 1-4.44 4.44h-4.72a4.44 4.44 0 0 1-4.44-4.44v-25.55Z"/><path class="cls-8" d="M172.1 226.07c-3.75 0-7.29 5.45-7.29 1.69l.49-31.68h13.6v23.19a6.79 6.79 0 0 1-6.8 6.8Z" style="clip-path:url(#clip-path-2)"/><path class="cls-2" d="M117 62.56h20.4a16.88 16.88 0 0 0 16.88-16.88v-27.8a14.09 14.09 0 0 0-14.12-14.09L136 4.2l-20.34-.41H79.59a10.34 10.34 0 0 0-10.34 10.34v46.58h8v13.35l-7.38 22.21v68.11a33.2 33.2 0 0 0 33.2 33.2h76.31a6.43 6.43 0 0 0 6.44-6.43L139.46 75.46v-13"/><circle class="cls-10" cx="88.01" cy="19.76" r="18.76"/><path class="cls-10" d="M144.29 19.76A18.75 18.75 0 1 1 136 4.2a18.76 18.76 0 0 1 8.29 15.56Z"/><path class="cls-11" d="M69.87 162.86h12.31a28.58 28.58 0 0 0 28.58-28.59V82.53l-40.87 8.54Z"/><path d="M121.72 108.9a38 38 0 0 1 38-38c26.68-.4 63.56 30.92 62.23 87.9a33.24 33.24 0 0 1-33.23 33.2c-26 1.91-65.36-47.63-67-82.25Z" style="fill:#c0edec"/><path class="cls-1" d="M79.45 33.18H69A19 19 0 0 0 53.62 41l-.57.81c-.39.6-1.86 3.08-3.44 5.76a113.73 113.73 0 0 0-7.82 16l-4.38 11.17c-.65 3.21-.5 6.65 2.33 8.33a6.29 6.29 0 0 0 8.93-2.69 33.33 33.33 0 0 1 30.12-19h.66a14.09 14.09 0 0 0 14.09-14.12 14.08 14.08 0 0 0-14.09-14.08Z"/><path class="cls-10" d="M144.29 19.76h12.42a8.44 8.44 0 0 1 8.44 8.44h0"/><path class="cls-11" d="M60.86 56.12c6.34 4.25 14.3 2.68 17.07-6.52a.71.71 0 0 0-1.07-.8 47.53 47.53 0 0 1-15.75 6 .71.71 0 0 0-.25 1.32Z"/><ellipse class="cls-4" cx="98.16" cy="20.6" rx="3.4" ry="4.18"/><ellipse class="cls-4" cx="114.49" cy="20.6" rx="3.4" ry="4.18"/><rect class="cls-4" x="113.31" y="1.77" width="17.44" height="6.1" rx="1.65" transform="rotate(14.92 122.046 4.837)"/><rect class="cls-4" x="78.67" y="3.98" width="17.44" height="6.1" rx="1.65" transform="rotate(-14.92 87.402 7.017)"/><path class="cls-14" d="M100.31 69.48H111a6 6 0 0 1 6 6v15.61a6.32 6.32 0 0 1-6.32 6.32h-10.43a1.78 1.78 0 0 1-1.78-1.78V71.32a1.84 1.84 0 0 1 1.84-1.84Z" transform="rotate(-180 107.76 83.445)"/><path class="cls-14" d="M64.9 69.48h10.48a6.32 6.32 0 0 1 6.32 6.32v15.58a6 6 0 0 1-6 6H65a1.84 1.84 0 0 1-1.84-1.84V71.26a1.78 1.78 0 0 1 1.78-1.78Z"/><path d="M69.87 96.27v68.11c0 20.8 15.8 33.88 33.2 33.2C81.37 186.1 72.84 147 69.87 96.27Z" style="fill:#606060;opacity:.44"/><circle cx="89.36" cy="83.45" r="10.44" style="fill:#d85050"/></svg>