<svg id="Layer_1" data-name="Layer 1" xmlns="http://www.w3.org/2000/svg" xmlns:xlink="http://www.w3.org/1999/xlink" viewBox="0 0 174.58 303.23"><defs><linearGradient id="linear-gradient" x1="99.25" y1="82.69" x2="126.06" y2="92.01" gradientUnits="userSpaceOnUse"><stop offset="0" stop-color="#f29538"/><stop offset="1" stop-color="#eda74c"/></linearGradient><linearGradient id="linear-gradient-2" x1="-10.83" y1="122.06" x2="25.3" y2="134.45" xlink:href="#linear-gradient"/><linearGradient id="linear-gradient-4" x1="62.96" y1="193.63" x2="145.93" y2="152.4" xlink:href="#linear-gradient"/><clipPath id="clip-path"><path class="cls-1" d="M119.27 118.07c4.92-13.91 11.12-37.43 13.23-52.25l-8.3-2.71c-2.1 14.82-7.6 34.64-12.52 48.55"/></clipPath><clipPath id="clip-path-2"><path class="cls-2" d="m73.1 202.67 12.57 33.42A17.92 17.92 0 0 1 84 251.9l-15.54 24.73a2 2 0 0 0 .3 2.6c2.24 2 7.49 1.74 9.25-.91l16.23-25.75a17.92 17.92 0 0 0 1.63-15.81l-12.61-34.5"/></clipPath><clipPath id="clip-path-3"><path class="cls-2" d="m42 193.21-14.58 22.26c-4.23 5.21-5.5 12-1.71 17.78.19.29.31.62.48.93l25.06 42.94a2.08 2.08 0 0 1-.45 2.59c-2.35 1.91-7.57 1.31-9.19-1.43l-25.61-44q-.26-.47-.48-.93a17.83 17.83 0 0 1 1.56-17.65L35.23 189"/></clipPath><style>.cls-1{fill:url(#linear-gradient)}.cls-2{fill:#f2c666}.cls-3{fill:#27464f}.cls-4{fill:#f29538}.cls-6{fill:#eda74c}.cls-7{fill:none;stroke:#27464f;stroke-linecap:round;stroke-linejoin:round}.cls-10{opacity:.21}.cls-11{fill:#f2f2f2}.cls-13{fill:#d8b060}.cls-16{fill:#243e44}</style></defs><path class="cls-3" d="M77.56 290.32a9.64 9.64 0 0 1 18.3 4.23v4.35h-31v-16.12l15.94 1.72 2.64.82M43.3 289.81A9.64 9.64 0 0 0 25 294v4.35h31v-16.08L40.07 284l-2.64.82"/><path class="cls-4" d="m37.49 118-3.61 1.47a18.27 18.27 0 0 1-15.94-1A12 12 0 0 0 0 129.83l.45 5.6c2.47 30.56 39 63.65 74.2 63.65s53.1-28.5 53.1-63.65c-.88-21.56-23.57-32.76-32.74-34.71a23 23 0 0 0-10.07 0Z"/><path class="cls-4" d="M129.48 59.78c10.33 29.16 8.46 56.52-1.95 82.61a3.45 3.45 0 0 1-5.5 1.32c-21.58-19.44-17.39-62.58.6-85.15a4 4 0 0 1 6.85 1.22Z"/><path class="cls-4" d="M102.83 77.45c15.15 18.11 21.09 38.18 20.59 59.62a2.64 2.64 0 0 1-3.59 2.41c-20.61-8.17-29.08-40.15-22.21-61.08a3 3 0 0 1 5.21-.95Z"/><path d="M38.57 121.7 35 123.17a18.24 18.24 0 0 1-15.94-1 12 12 0 0 0-17.9 11.38l.45 5.6c2.47 30.57 39.05 63.66 74.2 63.66s53.1-28.5 53.1-63.66c-.88-21.55-23.57-32.75-32.74-34.7a23 23 0 0 0-10.06 0Z" style="fill:url(#linear-gradient-2)"/><path class="cls-4" d="M33.15 100.45c3.66 42.07 42.62 60.28 49.36 42.23M135 1.65a32.22 32.22 0 0 0-14.87 3.62c-2.85-.18-4.87-1.88-6.44-4.36a.7.7 0 0 0-1.22.07 9.53 9.53 0 0 0-.07 7.76.7.7 0 0 1-.89.93 10.67 10.67 0 0 1-6.3-7.37.9.9 0 0 0-1.68-.15c-3.18 7-2.6 13.51 1.51 19.55A32.38 32.38 0 1 0 135 1.65Z"/><path class="cls-6" d="M137.19 1.09a32.15 32.15 0 0 0-14.86 3.62c-2.85-.19-4.87-1.88-6.44-4.37a.7.7 0 0 0-1.22.08 9.53 9.53 0 0 0-.07 7.76.7.7 0 0 1-.89.93 10.69 10.69 0 0 1-6.3-7.37.9.9 0 0 0-1.68-.15c-3.18 7-2.6 13.5 1.52 19.55a32.37 32.37 0 1 0 29.92-20Z"/><circle class="cls-7" cx="127.81" cy="23.76" r="11.1"/><circle class="cls-7" cx="150" cy="20.41" r="11.1"/><path class="cls-7" d="M116.81 22.36h0a12 12 0 0 0-13.36 3.75L101.91 28"/><path class="cls-2" d="M166 50.7c-6.91-.38-13.57-5.62-15.1-11.25a5.69 5.69 0 0 0-10.9 2.33c-.18 12.22 14.72 29.75 24.3 29.35a10.28 10.28 0 1 0 0-20.56"/><path class="cls-1" d="M119.27 118.07c4.92-13.91 11.12-37.43 13.23-52.25l-8.3-2.71c-2.1 14.82-7.6 34.64-12.52 48.55"/><g style="clip-path:url(#clip-path)"><path d="M114 115.83c4.92-13.91 11.12-37.43 13.23-52.25l-8.3-2.71c-2.1 14.82-7.6 34.63-12.52 48.55" style="fill:#e5893e"/><path class="cls-10" d="M65 148.37c-11.15-3.89-20.61-13.08-27.51-30.37"/></g><circle class="cls-4" cx="17.19" cy="143.91" r="2.83"/><circle class="cls-4" cx="18.98" cy="133.5" r="1.85"/><circle class="cls-4" cx="25.39" cy="138.44" r="2.64"/><path class="cls-6" d="M70.28 133.5C47.6 131 28.6 103.2 31.12 79.56a2.79 2.79 0 0 1 4-2.17A32.74 32.74 0 0 1 48.75 91"/><path class="cls-11" d="M68.82 274.85h9.32a5.11 5.11 0 0 1 5.12 5.15 5.17 5.17 0 0 1-5.17 5.17h-9a5.28 5.28 0 0 1-5.28-5.28 5 5 0 0 1 5-5ZM41.3 274.12H52a5.11 5.11 0 0 1 5.11 5.11 5.17 5.17 0 0 1-5.17 5.17H41.56a5.28 5.28 0 0 1-5.28-5.28 5 5 0 0 1 5-5Z"/><path class="cls-2" d="m73.1 202.67 12.57 33.42A17.92 17.92 0 0 1 84 251.9l-15.54 24.73a2 2 0 0 0 .3 2.6c2.24 2 7.49 1.74 9.25-.91l16.23-25.75a17.92 17.92 0 0 0 1.63-15.81l-12.61-34.5"/><path class="cls-13" d="m77.91 201.87 13.17 34.72a17.92 17.92 0 0 1-1.63 15.81l-15.58 24.72c-.53.83-2.85 5.83-2.13 6.5 2.24 2 9.92-2.16 11.68-4.8l16.23-25.75a17.92 17.92 0 0 0 1.63-15.81l-12.61-34.5" style="clip-path:url(#clip-path-2)"/><path class="cls-2" d="m42 193.21-14.58 22.26c-4.23 5.21-5.5 12-1.71 17.78.19.29.31.62.48.93l25.06 42.94a2.08 2.08 0 0 1-.45 2.59c-2.35 1.91-7.57 1.31-9.19-1.43l-25.61-44q-.26-.47-.48-.93a17.83 17.83 0 0 1 1.56-17.65L35.23 189"/><path class="cls-13" d="m46.4 192.81-14.54 22.26c-4.24 5.21-5.5 12-1.72 17.78a8.17 8.17 0 0 1 .48.93l25.06 42.94a2.06 2.06 0 0 1-.44 2.59c-2.35 1.91-5.38 5.05-7 2.31L20.4 233.88q-.25-.47-.48-.93a17.85 17.85 0 0 1 1.56-17.65l18.19-26.72" style="clip-path:url(#clip-path-3)"/><path d="M129 138.44c-8.66 43.34-51.11 55.91-92.65 51.53 12 7.84 25 12.56 39.38 12.8 30.39-.86 51.17-17.13 53.1-63.66Z" style="fill:url(#linear-gradient-4)"/><path class="cls-16" d="M25 298.39h31v3a1.28 1.28 0 0 1-1.28 1.28H27.45a2.46 2.46 0 0 1-2.45-2.41v-1.87Z"/><path class="cls-16" d="M67.63 298.9h27.18a1.06 1.06 0 0 1 1.05 1.1v3.27h-31v-1.54a2.78 2.78 0 0 1 2.77-2.83Z" transform="rotate(-180 80.36 301.065)"/><ellipse class="cls-3" cx="133.62" cy="23.76" rx="2.22" ry="2.73" transform="rotate(-9.19 133.525 23.755)"/><ellipse class="cls-3" cx="144.15" cy="22.06" rx="2.22" ry="2.73" transform="rotate(-9.19 144.057 22.034)"/><path d="M153.14 57.33c1.43 4.78 6.1 7.29 11.31 3.79a.46.46 0 0 0-.2-.85 31.12 31.12 0 0 1-10.45-3.48.46.46 0 0 0-.66.54Z" style="fill:#fff"/><rect class="cls-3" x="140.48" y="8.43" width="11.39" height="3.98" rx="1.65" transform="rotate(14.92 146.234 10.409)"/><rect class="cls-3" x="117.86" y="9.86" width="11.39" height="3.98" rx="1.65" transform="rotate(-14.92 123.586 11.871)"/><path class="cls-10" d="M140.53 46.28c.72 8.73 4.19 14.44 9.75 16.9H150a41.3 41.3 0 0 1-9.47-16.9Z"/><path class="cls-4" d="M73.7 61.42a37.14 37.14 0 0 0-1.19-3.56C71 54 65.23 54.92 62.43 58 43.53 78.37 45.18 99.14 61 121"/><path class="cls-6" d="M78.57 79.08c-.93-6.62-2-13-4.53-17.2a3.08 3.08 0 0 0-4.82-.52c-16 16.38-18.95 55.53 1.94 73.66"/><path class="cls-2" d="M78.57 79.08c9.88 21.45 10.35 42.38 4.25 62.93a2.65 2.65 0 0 1-4.1 1.39C61 130.11 61.17 97 73.29 78.63a3 3 0 0 1 5.28.45Z"/><path class="cls-6" d="M78.62 134.37a1.72 1.72 0 0 1-1-2.08 57.91 57.91 0 0 0 2-15.78c0-7.31-1.07-13.83-2.75-18.09a1.8 1.8 0 0 1 .76-2.23 1.78 1.78 0 0 1 2.56.92c1.75 4.63 2.85 11.55 2.85 19.28A63.48 63.48 0 0 1 81 133.27a1.73 1.73 0 0 1-2.35 1.1Z"/><path class="cls-16" d="M40.64 286.51c-6.51-4.94-13.89-1-15.4 5.39 3.45-5.26 8.49-7.26 15.4-5.39ZM80.16 287c6.52-4.93 13.89-1 15.41 5.39-3.46-5.22-8.49-7.22-15.41-5.39Z"/></svg>