<svg id="Layer_1" data-name="Layer 1" xmlns="http://www.w3.org/2000/svg" viewBox="0 0 285.55 306.36"><defs><clipPath id="clip-path"><path class="cls-1" d="M285.14 181.92a34.51 34.51 0 0 1-7.83-10.58c-1.76-3.72-4.75-19.48-5.85-28.77a17.16 17.16 0 0 0 12.38 1.58 1.36 1.36 0 0 0 .45-2.45c-4.22-2.82-7.42-5.82-8.82-9.16-1.55-3.63-4.28-11.47-7-19.35v.13c-.63-1.77-1.32-3.5-2.1-5.19a18.5 18.5 0 0 0 7.74-2.49 1.35 1.35 0 0 0-.3-2.48c-4.86-1.42-14.94-7.34-17.29-10.1A61.59 61.59 0 0 0 166.23 91V27.51a27.51 27.51 0 1 0-55 0v71.86a10.77 10.77 0 1 1-21.53 0v-15L73 92.66v7.09a27.51 27.51 0 0 0 55 0V27.89a10.77 10.77 0 1 1 21.54 0v96.5a62.94 62.94 0 0 0-.74 9.57c0 1.16 0 2.31.1 3.46-.33 4.45-3.16 14.07-5.45 18.06a1.35 1.35 0 0 0 1.5 2 18.43 18.43 0 0 0 7.19-3.49 61.44 61.44 0 0 0 11.74 20.36c.42 4.69.41 10.45-.22 13.56a1.36 1.36 0 0 0 2.06 1.42 18.07 18.07 0 0 0 6.48-6.87A60 60 0 0 0 201.82 195a8.92 8.92 0 0 1 6.05 3.64 17.12 17.12 0 0 1 3.36 9.81c0 1.2 1.86 1.36 2.47.33a22.61 22.61 0 0 0 1.48-3.34 10.1 10.1 0 0 1 3.44-4.58c7.89-5.87 18.08-7.16 29.56-6.23.52 0 1 .07 1.55.13a24.06 24.06 0 0 1 12.46 5.52 10.48 10.48 0 0 0 2.79 1.59 1 1 0 0 0 1.36-1.16c-.72-3-1-5.9 0-8.31a12.44 12.44 0 0 1 2.63-4.09c3.07-3.13 7.34-4.12 13-4.12a20.79 20.79 0 0 0 2.24 0 1.35 1.35 0 0 0 .93-2.27Z"/></clipPath><clipPath id="clip-path-2"><path class="cls-2" d="M208.12 199.28 197 220.78a18.49 18.49 0 0 0 .67 18.24L209 257.51a7.23 7.23 0 0 1-2.36 10 7.5 7.5 0 0 1-10.3-2.51l-12.54-20.3a29 29 0 0 1-1.05-28.56L195 192.56a6.87 6.87 0 0 1 9.25-2.93l1 .52a6.76 6.76 0 0 1 2.87 9.13Z"/></clipPath><clipPath id="clip-path-3"><path class="cls-2" d="M251.67 194.56v73.82a7.23 7.23 0 0 1-7.18 7.31H244a7.3 7.3 0 0 1-7.06-7.32v-73.8"/></clipPath><style>.cls-1{fill:#21a396}.cls-2{fill:#f2c666}.cls-3{fill:#fff}.cls-10,.cls-5{fill:#27464f}.cls-5,.cls-8{stroke-linecap:round}.cls-5{stroke:#27464f;stroke-linejoin:round;stroke-width:.53px}.cls-8{fill:none;stroke:#67a8a0;stroke-miterlimit:10;stroke-width:3px}.cls-9{fill:#f2f2f2}.cls-11{fill:#243e44}.cls-13{fill:#ddb462}</style></defs><path class="cls-3" d="M36.49 75.6c4.14 2.78 9.34 1.75 11.14-4.26a.46.46 0 0 0-.69-.53 31.18 31.18 0 0 1-10.29 4 .46.46 0 0 0-.16.79Z"/><rect x="69.61" y="53.08" width="11.39" height="3.98" rx="1.65" transform="rotate(14.92 75.336 55.075)" style="fill:#34344c"/><path class="cls-5" d="M47 56.22a7.6 7.6 0 0 1-6.19-7.47h0a7.59 7.59 0 0 1 7.6-7.59h39.3a7.59 7.59 0 0 1 7.6 7.59h0A7.61 7.61 0 0 1 90.08 56"/><path class="cls-5" d="M62.75 27.66h13a13.5 13.5 0 0 1 13.5 13.5v0h0-40 0v0a13.5 13.5 0 0 1 13.5-13.5Z"/><path class="cls-1" d="M285.14 181.92a34.51 34.51 0 0 1-7.83-10.58c-1.76-3.72-4.75-19.48-5.85-28.77a17.16 17.16 0 0 0 12.38 1.58 1.36 1.36 0 0 0 .45-2.45c-4.22-2.82-7.42-5.82-8.82-9.16-1.55-3.63-4.28-11.47-7-19.35v.13c-.63-1.77-1.32-3.5-2.1-5.19a18.5 18.5 0 0 0 7.74-2.49 1.35 1.35 0 0 0-.3-2.48c-4.86-1.42-14.94-7.34-17.29-10.1A61.59 61.59 0 0 0 166.23 91V27.51a27.51 27.51 0 1 0-55 0v71.86a10.77 10.77 0 1 1-21.53 0v-15L73 92.66v7.09a27.51 27.51 0 0 0 55 0V27.89a10.77 10.77 0 1 1 21.54 0v96.5a62.94 62.94 0 0 0-.74 9.57c0 1.16 0 2.31.1 3.46-.33 4.45-3.16 14.07-5.45 18.06a1.35 1.35 0 0 0 1.5 2 18.43 18.43 0 0 0 7.19-3.49 61.44 61.44 0 0 0 11.74 20.36c.42 4.69.41 10.45-.22 13.56a1.36 1.36 0 0 0 2.06 1.42 18.07 18.07 0 0 0 6.48-6.87A60 60 0 0 0 201.82 195a8.92 8.92 0 0 1 6.05 3.64 17.12 17.12 0 0 1 3.36 9.81c0 1.2 1.86 1.36 2.47.33a22.61 22.61 0 0 0 1.48-3.34 10.1 10.1 0 0 1 3.44-4.58c7.89-5.87 18.08-7.16 29.56-6.23.52 0 1 .07 1.55.13a24.06 24.06 0 0 1 12.46 5.52 10.48 10.48 0 0 0 2.79 1.59 1 1 0 0 0 1.36-1.16c-.72-3-1-5.9 0-8.31a12.44 12.44 0 0 1 2.63-4.09c3.07-3.13 7.34-4.12 13-4.12a20.79 20.79 0 0 0 2.24 0 1.35 1.35 0 0 0 .93-2.27Z"/><g style="clip-path:url(#clip-path)"><path d="M141 77.07 142.26 200c51.68 24.37 83.35 19.34 106.3 1.51-73-5.79-92.77-70.9-92.52-111.84V24.8a14.87 14.87 0 0 0-14.87-14.87H135a13.72 13.72 0 0 0-13.72 13.72v75.16c0 10 10 0 0 0l.46 33.37c-9.46 0 .13-2 .13-11.49l-1.7 8.62-29.81 22.37 27.47-3.15-3.4 9.76 12.93-18.36 5.7-21.17" style="opacity:.18"/></g><path class="cls-8" d="M247.72 138.59c.33 3.15 3.25 5 6.83 6.61a1.28 1.28 0 0 1 .2 2.25 11.54 11.54 0 0 1-9.57 1.52M218.58 124.42c-.4 2.72 1.65 4.94 4.32 7a1.11 1.11 0 0 1-.32 1.93 10 10 0 0 1-8.38-.79M197.06 148.53c1.18 2.49-.13 5.21-2.07 8a1.11 1.11 0 0 0 .87 1.76 10 10 0 0 0 7.78-3.21M195.47 86.84c1.18 2.48-.13 5.21-2.08 8a1.12 1.12 0 0 0 .88 1.76 10.06 10.06 0 0 0 7.78-3.21M234.49 102.46c.39 2.84 3.09 4.47 6.37 5.8a1.16 1.16 0 0 1 .24 2 10.43 10.43 0 0 1-8.62 1.64"/><path class="cls-9" d="M236.78 269.89h14.93a6.55 6.55 0 0 1 6.55 6.55 6.83 6.83 0 0 1-6.83 6.83h-14.37a6.83 6.83 0 0 1-6.83-6.83 6.55 6.55 0 0 1 6.55-6.55Z"/><path class="cls-10" d="M238.15 292.07a13 13 0 0 0-26 0v7h41.37v-16.36l-20.05-.86Z"/><path class="cls-11" d="M212.19 299.07h41.37v2.22a2.65 2.65 0 0 1-2.65 2.65h-36.55a2.17 2.17 0 0 1-2.17-2.17V299.07Z"/><path class="cls-9" d="M199.12 260.86h14.93a6.55 6.55 0 0 1 6.55 6.55 6.83 6.83 0 0 1-6.83 6.83H199.4a6.83 6.83 0 0 1-6.83-6.83 6.55 6.55 0 0 1 6.55-6.55Z" transform="rotate(-30.48 206.552 267.516)"/><path class="cls-10" d="M209.19 284a13 13 0 0 0-22.37 13.17l3.55 6 35.66-21-8.3-14.1L198 280Z"/><path class="cls-11" d="M188.75 292.36h41.37v2.4a2.47 2.47 0 0 1-2.47 2.47h-36.14a2.77 2.77 0 0 1-2.77-2.77v-2.1h.01Z" transform="rotate(-30.7 207.573 293.412)"/><path class="cls-8" d="M174.52 115.63c-.09 3.15-1.75 6.61-4.28 10.22a1.18 1.18 0 0 0 1.15 1.85 15 15 0 0 0 9.66-5.31M232.23 168.9c0 2.8 2.4 4.74 5.41 6.45a1.13 1.13 0 0 1 0 2 10.18 10.18 0 0 1-8.55.46"/><path class="cls-2" d="M208.12 199.28 197 220.78a18.49 18.49 0 0 0 .67 18.24L209 257.51a7.23 7.23 0 0 1-2.36 10 7.5 7.5 0 0 1-10.3-2.51l-12.54-20.3a29 29 0 0 1-1.05-28.56L195 192.56a6.87 6.87 0 0 1 9.25-2.93l1 .52a6.76 6.76 0 0 1 2.87 9.13Z"/><path class="cls-13" d="m216.33 199.24-11.16 21.5a18.49 18.49 0 0 0 .67 18.24l11.4 18.49a7.24 7.24 0 0 1-2.36 10 7.52 7.52 0 0 1-10.34-2.47L192 244.66a29 29 0 0 1-1-28.56l12.24-23.58a6.87 6.87 0 0 1 9.25-2.93l1 .52a6.77 6.77 0 0 1 2.84 9.13Z" style="clip-path:url(#clip-path-2)"/><path class="cls-2" d="M251.67 194.56v73.82a7.23 7.23 0 0 1-7.18 7.31H244a7.3 7.3 0 0 1-7.06-7.32v-73.8"/><path class="cls-13" d="M259 194.56v73.82a7.23 7.23 0 0 1-7.18 7.31h-.5a7.3 7.3 0 0 1-7.06-7.32v-73.8" style="clip-path:url(#clip-path-3)"/><rect x="45.67" y="47.97" width="44.69" height="44.69" rx="12.67" style="fill:#67a8a0"/><ellipse class="cls-10" cx="58.7" cy="60.49" rx="2.22" ry="2.73"/><ellipse class="cls-10" cx="68.21" cy="60.49" rx="2.22" ry="2.73"/><path class="cls-2" d="M64.67 76.53A289 289 0 0 1 21 80.92q-10.57.22-21-.42c0-12.27 38.65-13.68 45.87-13.8l9.29-.17a9.76 9.76 0 0 1 9.51 10c0 5.52-4.2 9.47-9.51 10-14.3.47-23.11-.53-34.61-5.6"/><path class="cls-3" d="M25.42 80.7c4.14 2.78 9.34 1.75 11.14-4.26a.46.46 0 0 0-.69-.53 31.18 31.18 0 0 1-10.29 4 .46.46 0 0 0-.16.79Z"/><rect class="cls-10" x="67.26" y="51.61" width="11.39" height="3.98" rx="1.65" transform="rotate(15 72.295 53.056)"/><rect class="cls-10" x="46.01" y="51.61" width="11.39" height="3.98" rx="1.65" transform="rotate(165.08 51.706 53.6)"/></svg>